ply
format ascii 1.0
comment Created by Blender 2.93.10 - www.blender.org
element vertex 72
property float x
property float y
property float z
property float nx
property float ny
property float nz
property float s
property float t
element face 30
property list uchar uint vertex_indices
end_header
1.000000 -0.799025 -0.799025 1.000000 0.000000 0.000000 0.400122 0.025122
1.000000 0.799025 -0.799025 1.000000 0.000000 0.000000 0.599878 0.025122
1.000000 0.799025 0.799025 1.000000 0.000000 0.000000 0.599878 0.224878
1.000000 -0.799025 0.799025 1.000000 0.000000 0.000000 0.400122 0.224878
0.799025 -0.799025 1.000000 -0.000000 0.000000 1.000000 0.400122 0.275122
0.799025 0.799025 1.000000 -0.000000 0.000000 1.000000 0.599878 0.275122
-0.799025 0.799025 1.000000 -0.000000 0.000000 1.000000 0.599878 0.474878
-0.799025 -0.799025 1.000000 -0.000000 0.000000 1.000000 0.400122 0.474878
-1.000000 -0.799025 0.799025 -1.000000 0.000000 0.000000 0.400122 0.525122
-1.000000 0.799025 0.799025 -1.000000 0.000000 0.000000 0.599878 0.525122
-1.000000 0.799025 -0.799025 -1.000000 0.000000 0.000000 0.599878 0.724878
-1.000000 -0.799025 -0.799025 -1.000000 0.000000 0.000000 0.400122 0.724878
-0.799025 -0.799025 -1.000000 -0.000000 0.000000 -1.000000 0.400122 0.775122
-0.799025 0.799025 -1.000000 -0.000000 0.000000 -1.000000 0.599878 0.775122
0.799025 0.799025 -1.000000 -0.000000 0.000000 -1.000000 0.599878 0.974878
0.799025 -0.799025 -1.000000 -0.000000 0.000000 -1.000000 0.400122 0.974878
0.799025 -1.000000 0.799025 0.000000 -1.000000 0.000000 0.150122 0.525122
-0.799025 -1.000000 0.799025 0.000000 -1.000000 0.000000 0.349878 0.525122
-0.799025 -1.000000 -0.799025 0.000000 -1.000000 0.000000 0.349878 0.724878
0.799025 -1.000000 -0.799025 0.000000 -1.000000 0.000000 0.150122 0.724878
-0.799025 1.000000 0.799025 0.000000 1.000000 -0.000000 0.650122 0.525122
0.799025 1.000000 0.799025 0.000000 1.000000 -0.000000 0.849878 0.525122
0.799025 1.000000 -0.799025 0.000000 1.000000 -0.000000 0.849878 0.724878
-0.799025 1.000000 -0.799025 0.000000 1.000000 -0.000000 0.650122 0.724878
1.000000 -1.000000 -1.000000 1.000000 0.000000 0.000000 0.375000 0.000000
1.000000 1.000000 -1.000000 1.000000 0.000000 0.000000 0.625000 0.000000
1.000000 0.799025 -0.799025 1.000000 0.000000 0.000000 0.599878 0.025122
1.000000 -0.799025 -0.799025 1.000000 0.000000 0.000000 0.400122 0.025122
1.000000 1.000000 1.000000 1.000000 -0.000000 0.000000 0.625000 0.250000
1.000000 0.799025 0.799025 1.000000 -0.000000 0.000000 0.599878 0.224878
1.000000 -1.000000 1.000000 1.000000 0.000000 -0.000000 0.375000 0.250000
1.000000 -0.799025 0.799025 1.000000 0.000000 -0.000000 0.400122 0.224878
1.000000 -1.000000 1.000000 -0.000000 0.000000 1.000000 0.375000 0.250000
1.000000 1.000000 1.000000 -0.000000 0.000000 1.000000 0.625000 0.250000
0.799025 0.799025 1.000000 -0.000000 0.000000 1.000000 0.599878 0.275122
0.799025 -0.799025 1.000000 -0.000000 0.000000 1.000000 0.400122 0.275122
-1.000000 1.000000 1.000000 0.000000 -0.000000 1.000000 0.625000 0.500000
-0.799025 0.799025 1.000000 0.000000 -0.000000 1.000000 0.599878 0.474878
-1.000000 -1.000000 1.000000 0.000000 0.000000 1.000000 0.375000 0.500000
-0.799025 -0.799025 1.000000 0.000000 0.000000 1.000000 0.400122 0.474878
-1.000000 -1.000000 1.000000 -1.000000 0.000000 0.000000 0.375000 0.500000
-1.000000 1.000000 1.000000 -1.000000 0.000000 0.000000 0.625000 0.500000
-1.000000 0.799025 0.799025 -1.000000 0.000000 0.000000 0.599878 0.525122
-1.000000 -0.799025 0.799025 -1.000000 0.000000 0.000000 0.400122 0.525122
-1.000000 1.000000 -1.000000 -1.000000 0.000000 0.000000 0.625000 0.750000
-1.000000 0.799025 -0.799025 -1.000000 0.000000 0.000000 0.599878 0.724878
-1.000000 -1.000000 -1.000000 -1.000000 0.000000 -0.000000 0.375000 0.750000
-1.000000 -0.799025 -0.799025 -1.000000 0.000000 -0.000000 0.400122 0.724878
-1.000000 -1.000000 -1.000000 -0.000000 0.000000 -1.000000 0.375000 0.750000
-1.000000 1.000000 -1.000000 -0.000000 0.000000 -1.000000 0.625000 0.750000
-0.799025 0.799025 -1.000000 -0.000000 0.000000 -1.000000 0.599878 0.775122
-0.799025 -0.799025 -1.000000 -0.000000 0.000000 -1.000000 0.400122 0.775122
1.000000 1.000000 -1.000000 0.000000 0.000000 -1.000000 0.625000 1.000000
0.799025 0.799025 -1.000000 0.000000 0.000000 -1.000000 0.599878 0.974878
1.000000 -1.000000 -1.000000 0.000000 0.000000 -1.000000 0.375000 1.000000
0.799025 -0.799025 -1.000000 0.000000 0.000000 -1.000000 0.400122 0.974878
1.000000 -1.000000 1.000000 0.000000 -1.000000 0.000000 0.125000 0.500000
-1.000000 -1.000000 1.000000 0.000000 -1.000000 0.000000 0.375000 0.500000
-0.799025 -1.000000 0.799025 0.000000 -1.000000 0.000000 0.349878 0.525122
0.799025 -1.000000 0.799025 0.000000 -1.000000 0.000000 0.150122 0.525122
-1.000000 -1.000000 -1.000000 -0.000000 -1.000000 0.000000 0.375000 0.750000
-0.799025 -1.000000 -0.799025 -0.000000 -1.000000 0.000000 0.349878 0.724878
1.000000 -1.000000 -1.000000 0.000000 -1.000000 -0.000000 0.125000 0.750000
0.799025 -1.000000 -0.799025 0.000000 -1.000000 -0.000000 0.150122 0.724878
-1.000000 1.000000 1.000000 0.000000 1.000000 -0.000000 0.625000 0.500000
1.000000 1.000000 1.000000 0.000000 1.000000 -0.000000 0.875000 0.500000
0.799025 1.000000 0.799025 0.000000 1.000000 -0.000000 0.849878 0.525122
-0.799025 1.000000 0.799025 0.000000 1.000000 -0.000000 0.650122 0.525122
1.000000 1.000000 -1.000000 -0.000000 1.000000 0.000000 0.875000 0.750000
0.799025 1.000000 -0.799025 -0.000000 1.000000 0.000000 0.849878 0.724878
-1.000000 1.000000 -1.000000 0.000000 1.000000 0.000000 0.625000 0.750000
-0.799025 1.000000 -0.799025 0.000000 1.000000 0.000000 0.650122 0.724878
4 0 1 2 3
4 4 5 6 7
4 8 9 10 11
4 12 13 14 15
4 16 17 18 19
4 20 21 22 23
4 24 25 26 27
4 25 28 29 26
4 28 30 31 29
4 30 24 27 31
4 32 33 34 35
4 33 36 37 34
4 36 38 39 37
4 38 32 35 39
4 40 41 42 43
4 41 44 45 42
4 44 46 47 45
4 46 40 43 47
4 48 49 50 51
4 49 52 53 50
4 52 54 55 53
4 54 48 51 55
4 56 57 58 59
4 57 60 61 58
4 60 62 63 61
4 62 56 59 63
4 64 65 66 67
4 65 68 69 66
4 68 70 71 69
4 70 64 67 71
