ply
format ascii 1.0
comment Created by Blender 2.93.10 - www.blender.org
element vertex 52
property float x
property float y
property float z
property float nx
property float ny
property float nz
property float s
property float t
element face 36
property list uchar uint vertex_indices
end_header
0.000000 -0.500000 0.000000 0.000000 -1.000000 0.000000 0.750000 0.250000
0.000000 -0.500000 0.100000 0.000000 -0.653218 0.757134 0.750000 0.490000
-0.050000 -0.500000 0.086603 -0.378552 -0.653218 0.655721 0.870000 0.457846
0.000000 0.500000 0.000000 0.000000 1.000000 0.000000 0.250000 0.250000
-0.050000 0.500000 0.086603 -0.378552 0.653218 0.655721 0.370000 0.457846
0.000000 0.500000 0.100000 0.000000 0.653218 0.757134 0.250000 0.490000
0.000000 -0.500000 0.100000 0.000000 -0.653218 0.757134 1.000000 0.500000
0.000000 0.500000 0.100000 0.000000 0.653218 0.757134 1.000000 1.000000
-0.050000 0.500000 0.086603 -0.378552 0.653218 0.655721 0.916667 1.000000
-0.050000 -0.500000 0.086603 -0.378552 -0.653218 0.655721 0.916667 0.500000
-0.086603 -0.500000 0.050000 -0.655721 -0.653218 0.378552 0.957846 0.370000
-0.086603 0.500000 0.050000 -0.655721 0.653218 0.378552 0.457846 0.370000
-0.086603 0.500000 0.050000 -0.655721 0.653218 0.378552 0.833333 1.000000
-0.086603 -0.500000 0.050000 -0.655721 -0.653218 0.378552 0.833333 0.500000
-0.100000 -0.500000 -0.000000 -0.757134 -0.653218 0.000000 0.990000 0.250000
-0.100000 0.500000 -0.000000 -0.757134 0.653218 0.000000 0.490000 0.250000
-0.100000 0.500000 -0.000000 -0.757134 0.653218 0.000000 0.750000 1.000000
-0.100000 -0.500000 -0.000000 -0.757134 -0.653218 0.000000 0.750000 0.500000
-0.086603 -0.500000 -0.050000 -0.655721 -0.653218 -0.378552 0.957846 0.130000
-0.086603 0.500000 -0.050000 -0.655721 0.653218 -0.378552 0.457846 0.130000
-0.086603 0.500000 -0.050000 -0.655721 0.653218 -0.378552 0.666667 1.000000
-0.086603 -0.500000 -0.050000 -0.655721 -0.653218 -0.378552 0.666667 0.500000
-0.050000 -0.500000 -0.086603 -0.378552 -0.653218 -0.655721 0.870000 0.042154
-0.050000 0.500000 -0.086603 -0.378552 0.653218 -0.655721 0.370000 0.042154
-0.050000 0.500000 -0.086603 -0.378552 0.653218 -0.655721 0.583333 1.000000
-0.050000 -0.500000 -0.086603 -0.378552 -0.653218 -0.655721 0.583333 0.500000
0.000000 -0.500000 -0.100000 0.000000 -0.653218 -0.757134 0.750000 0.010000
0.000000 0.500000 -0.100000 0.000000 0.653218 -0.757134 0.250000 0.010000
0.000000 0.500000 -0.100000 0.000000 0.653218 -0.757134 0.500000 1.000000
0.000000 -0.500000 -0.100000 0.000000 -0.653218 -0.757134 0.500000 0.500000
0.050000 -0.500000 -0.086603 0.378552 -0.653218 -0.655721 0.630000 0.042154
0.050000 0.500000 -0.086603 0.378552 0.653218 -0.655721 0.130000 0.042154
0.050000 0.500000 -0.086603 0.378552 0.653218 -0.655721 0.416667 1.000000
0.050000 -0.500000 -0.086603 0.378552 -0.653218 -0.655721 0.416667 0.500000
0.086603 -0.500000 -0.050000 0.655721 -0.653218 -0.378552 0.542154 0.130000
0.086603 0.500000 -0.050000 0.655721 0.653218 -0.378552 0.042154 0.130000
0.086603 0.500000 -0.050000 0.655721 0.653218 -0.378552 0.333333 1.000000
0.086603 -0.500000 -0.050000 0.655721 -0.653218 -0.378552 0.333333 0.500000
0.100000 -0.500000 0.000000 0.757134 -0.653218 0.000000 0.510000 0.250000
0.100000 0.500000 0.000000 0.757134 0.653218 0.000000 0.010000 0.250000
0.100000 0.500000 0.000000 0.757134 0.653218 0.000000 0.250000 1.000000
0.100000 -0.500000 0.000000 0.757134 -0.653218 0.000000 0.250000 0.500000
0.086603 -0.500000 0.050000 0.655721 -0.653218 0.378552 0.542154 0.370000
0.086603 0.500000 0.050000 0.655721 0.653218 0.378552 0.042154 0.370000
0.086603 0.500000 0.050000 0.655721 0.653218 0.378552 0.166667 1.000000
0.086603 -0.500000 0.050000 0.655721 -0.653218 0.378552 0.166667 0.500000
0.050000 -0.500000 0.086603 0.378552 -0.653218 0.655721 0.630000 0.457846
0.050000 0.500000 0.086603 0.378552 0.653218 0.655721 0.130000 0.457846
0.050000 0.500000 0.086603 0.378552 0.653218 0.655721 0.083333 1.000000
0.050000 -0.500000 0.086603 0.378552 -0.653218 0.655721 0.083333 0.500000
0.000000 0.500000 0.100000 0.000000 0.653218 0.757134 0.000000 1.000000
0.000000 -0.500000 0.100000 0.000000 -0.653218 0.757134 0.000000 0.500000
3 0 1 2
3 3 4 5
4 6 7 8 9
3 0 2 10
3 3 11 4
4 9 8 12 13
3 0 10 14
3 3 15 11
4 13 12 16 17
3 0 14 18
3 3 19 15
4 17 16 20 21
3 0 18 22
3 3 23 19
4 21 20 24 25
3 0 22 26
3 3 27 23
4 25 24 28 29
3 0 26 30
3 3 31 27
4 29 28 32 33
3 0 30 34
3 3 35 31
4 33 32 36 37
3 0 34 38
3 3 39 35
4 37 36 40 41
3 0 38 42
3 3 43 39
4 41 40 44 45
3 0 42 46
3 3 47 43
4 45 44 48 49
3 0 46 1
3 3 5 47
4 49 48 50 51
