ply
format ascii 1.0
comment Created by Blender 2.93.10 - www.blender.org
element vertex 65
property float x
property float y
property float z
property float nx
property float ny
property float nz
property float s
property float t
element face 33
property list uchar uint vertex_indices
end_header
0.000000 -1.000000 1.000000 0.000000 0.447188 0.894406 0.250000 0.490000
0.000000 1.000000 0.000000 0.000000 1.000000 0.000000 0.250000 0.250000
-0.195090 -1.000000 0.980785 -0.174474 0.447188 0.877224 0.296822 0.485388
-0.382683 -1.000000 0.923880 -0.342265 0.447188 0.826319 0.341844 0.471731
-0.555570 -1.000000 0.831470 -0.496902 0.447188 0.743675 0.383337 0.449553
-0.707107 -1.000000 0.707107 -0.632435 0.447188 0.632435 0.419706 0.419706
-0.831470 -1.000000 0.555570 -0.743675 0.447188 0.496902 0.449553 0.383337
-0.923880 -1.000000 0.382683 -0.826319 0.447188 0.342265 0.471731 0.341844
-0.980785 -1.000000 0.195090 -0.877224 0.447188 0.174474 0.485388 0.296822
-1.000000 -1.000000 -0.000000 -0.894406 0.447188 0.000000 0.490000 0.250000
-0.980785 -1.000000 -0.195090 -0.877224 0.447188 -0.174474 0.485388 0.203178
-0.923880 -1.000000 -0.382683 -0.826319 0.447188 -0.342265 0.471731 0.158156
-0.831470 -1.000000 -0.555570 -0.743675 0.447188 -0.496902 0.449553 0.116663
-0.707107 -1.000000 -0.707107 -0.632435 0.447188 -0.632435 0.419706 0.080294
-0.555570 -1.000000 -0.831470 -0.496902 0.447188 -0.743675 0.383337 0.050447
-0.382683 -1.000000 -0.923880 -0.342265 0.447188 -0.826319 0.341844 0.028269
-0.195090 -1.000000 -0.980785 -0.174474 0.447188 -0.877224 0.296822 0.014612
0.000000 -1.000000 -1.000000 0.000000 0.447188 -0.894406 0.250000 0.010000
0.195090 -1.000000 -0.980785 0.174474 0.447188 -0.877224 0.203178 0.014612
0.382683 -1.000000 -0.923880 0.342265 0.447188 -0.826319 0.158156 0.028269
0.555570 -1.000000 -0.831470 0.496902 0.447188 -0.743675 0.116663 0.050447
0.707107 -1.000000 -0.707107 0.632435 0.447188 -0.632435 0.080294 0.080294
0.831469 -1.000000 -0.555570 0.743675 0.447188 -0.496902 0.050447 0.116663
0.923880 -1.000000 -0.382684 0.826319 0.447188 -0.342265 0.028269 0.158156
0.980785 -1.000000 -0.195090 0.877224 0.447188 -0.174474 0.014612 0.203178
1.000000 -1.000000 0.000000 0.894406 0.447188 0.000000 0.010000 0.250000
0.980785 -1.000000 0.195090 0.877224 0.447188 0.174474 0.014612 0.296822
0.923879 -1.000000 0.382684 0.826319 0.447188 0.342265 0.028269 0.341844
0.831470 -1.000000 0.555570 0.743675 0.447188 0.496902 0.050447 0.383337
0.707107 -1.000000 0.707107 0.632435 0.447188 0.632435 0.080294 0.419706
0.555570 -1.000000 0.831470 0.496902 0.447188 0.743675 0.116663 0.449553
0.382683 -1.000000 0.923880 0.342265 0.447188 0.826319 0.158156 0.471731
0.000000 -1.000000 1.000000 0.000000 -0.999969 0.000000 0.750000 0.490000
-0.195090 -1.000000 0.980785 0.000000 -1.000000 0.000000 0.796822 0.485388
-0.382683 -1.000000 0.923880 0.000000 -1.000000 0.000000 0.841844 0.471731
-0.555570 -1.000000 0.831470 0.000000 -0.999969 0.000000 0.883337 0.449553
-0.707107 -1.000000 0.707107 0.000000 -0.999969 0.000000 0.919706 0.419706
-0.831470 -1.000000 0.555570 0.000000 -0.999969 0.000000 0.949553 0.383337
-0.923880 -1.000000 0.382683 0.000000 -1.000000 0.000000 0.971731 0.341844
-0.980785 -1.000000 0.195090 0.000000 -1.000000 0.000000 0.985388 0.296822
-1.000000 -1.000000 -0.000000 0.000000 -0.999969 0.000000 0.990000 0.250000
-0.980785 -1.000000 -0.195090 0.000000 -1.000000 0.000000 0.985388 0.203178
-0.923880 -1.000000 -0.382683 0.000000 -0.999969 0.000000 0.971731 0.158156
-0.831470 -1.000000 -0.555570 0.000000 -1.000000 0.000000 0.949553 0.116663
-0.707107 -1.000000 -0.707107 0.000000 -1.000000 0.000000 0.919706 0.080294
-0.555570 -1.000000 -0.831470 0.000000 -0.999969 0.000000 0.883337 0.050447
-0.382683 -1.000000 -0.923880 0.000000 -0.999969 0.000000 0.841844 0.028269
-0.195090 -1.000000 -0.980785 0.000000 -1.000000 0.000000 0.796822 0.014612
0.000000 -1.000000 -1.000000 0.000000 -1.000000 0.000000 0.750000 0.010000
0.195090 -1.000000 -0.980785 0.000000 -0.999969 0.000000 0.703178 0.014612
0.382683 -1.000000 -0.923880 0.000000 -0.999969 0.000000 0.658156 0.028269
0.555570 -1.000000 -0.831470 0.000000 -1.000000 0.000000 0.616663 0.050447
0.707107 -1.000000 -0.707107 0.000000 -1.000000 0.000000 0.580294 0.080294
0.831469 -1.000000 -0.555570 0.000000 -1.000000 0.000000 0.550447 0.116663
0.923880 -1.000000 -0.382684 0.000000 -0.999969 0.000000 0.528269 0.158156
0.980785 -1.000000 -0.195090 0.000000 -1.000000 0.000000 0.514612 0.203178
1.000000 -1.000000 0.000000 0.000000 -0.999969 0.000000 0.510000 0.250000
0.980785 -1.000000 0.195090 0.000000 -1.000000 0.000000 0.514612 0.296822
0.923879 -1.000000 0.382684 0.000000 -1.000000 0.000000 0.528269 0.341844
0.831470 -1.000000 0.555570 0.000000 -1.000000 0.000000 0.550447 0.383337
0.707107 -1.000000 0.707107 0.000000 -1.000000 0.000000 0.580294 0.419706
0.555570 -1.000000 0.831470 0.000000 -0.999969 0.000000 0.616663 0.449553
0.382683 -1.000000 0.923880 0.000000 -0.999969 0.000000 0.658156 0.471731
0.195090 -1.000000 0.980785 0.000000 -1.000000 0.000000 0.703178 0.485388
0.195090 -1.000000 0.980785 0.174474 0.447188 0.877224 0.203178 0.485388
3 0 1 2
3 2 1 3
3 3 1 4
3 4 1 5
3 5 1 6
3 6 1 7
3 7 1 8
3 8 1 9
3 9 1 10
3 10 1 11
3 11 1 12
3 12 1 13
3 13 1 14
3 14 1 15
3 15 1 16
3 16 1 17
3 17 1 18
3 18 1 19
3 19 1 20
3 20 1 21
3 21 1 22
3 22 1 23
3 23 1 24
3 24 1 25
3 25 1 26
3 26 1 27
3 27 1 28
3 28 1 29
3 29 1 30
3 30 1 31
32 32 33 34 35 36 37 38 39 40 41 42 43 44 45 46 47 48 49 50 51 52 53 54 55 56 57 58 59 60 61 62 63
3 31 1 64
3 64 1 0
