ply
format ascii 1.0
comment Created by Blender 2.93.10 - www.blender.org
element vertex 230
property float x
property float y
property float z
property float nx
property float ny
property float nz
property float s
property float t
element face 156
property list uchar uint vertex_indices
end_header
0.074439 0.581353 0.042977 -0.866024 0.000000 -0.499985 0.571347 0.146855
0.085954 0.581353 -0.000000 -1.000000 0.000000 0.000000 0.543710 0.250000
0.085954 0.509894 -0.000000 -1.000000 0.000000 0.000000 0.543710 0.250000
0.074439 0.509894 0.042977 -0.866024 0.000000 -0.499985 0.571347 0.146855
0.000000 -0.418647 0.000000 0.000000 -1.000000 0.000000 0.250000 0.250000
-0.050000 -0.418647 -0.086602 0.000000 -1.000000 0.000000 0.370000 0.457846
0.000000 -0.418647 -0.100000 0.000000 -0.999969 0.000000 0.250000 0.490000
0.000000 -0.307536 -0.173155 0.000000 -0.380230 -0.924863 1.000000 0.944444
0.000000 -0.418647 -0.100000 0.000000 -0.549883 -0.835200 1.000000 1.000000
-0.050000 -0.418647 -0.086602 -0.417585 -0.549883 -0.723319 0.916667 1.000000
-0.086577 -0.307536 -0.149956 -0.462416 -0.380230 -0.800958 0.916667 0.944444
-0.042977 0.581353 -0.074439 0.499985 0.000000 0.866024 0.853145 0.428652
-0.074439 0.581353 -0.042977 0.866024 0.000000 0.499985 0.928653 0.353145
-0.074439 0.509894 -0.042977 0.866024 0.000000 0.499985 0.928653 0.353145
-0.042977 0.509894 -0.074439 0.499985 0.000000 0.866024 0.853145 0.428652
-0.086603 -0.418647 -0.050000 0.000000 -1.000000 0.000000 0.457846 0.370000
-0.086603 -0.418647 -0.050000 -0.723319 -0.549883 -0.417585 0.833333 1.000000
-0.149957 -0.307536 -0.086577 -0.800958 -0.380230 -0.462416 0.833333 0.944444
0.042977 0.581353 -0.074439 -0.499985 0.000000 0.866024 0.646855 0.428652
-0.000000 0.581353 -0.085954 0.000000 0.000000 1.000000 0.750000 0.456290
-0.000000 0.509894 -0.085954 0.000000 0.000000 1.000000 0.750000 0.456290
0.042977 0.509894 -0.074439 -0.499985 0.000000 0.866024 0.646855 0.428652
-0.100000 -0.418647 0.000000 0.000000 -1.000000 0.000000 0.490000 0.250000
-0.100000 -0.418647 0.000000 -0.835200 -0.549883 0.000000 0.750000 1.000000
-0.173155 -0.307536 0.000000 -0.924863 -0.380230 0.000000 0.750000 0.944444
-0.074439 0.581353 0.042977 0.866024 0.000000 -0.499985 0.928653 0.146855
-0.042977 0.581353 0.074439 0.499985 0.000000 -0.866024 0.853145 0.071347
-0.042977 0.509894 0.074439 0.499985 0.000000 -0.866024 0.853145 0.071347
-0.074439 0.509894 0.042977 0.866024 0.000000 -0.499985 0.928653 0.146855
-0.086603 -0.418647 0.050000 0.000000 -1.000000 0.000000 0.457846 0.130000
-0.086603 -0.418647 0.050000 -0.723319 -0.549883 0.417585 0.666667 1.000000
-0.149957 -0.307536 0.086577 -0.800958 -0.380230 0.462416 0.666667 0.944444
0.042977 0.581353 0.074439 -0.499985 0.000000 -0.866024 0.646855 0.071347
0.042977 0.509894 0.074439 -0.499985 0.000000 -0.866024 0.646855 0.071347
-0.050000 -0.418647 0.086603 0.000000 -0.999969 0.000000 0.370000 0.042154
-0.050000 -0.418647 0.086603 -0.417585 -0.549883 0.723319 0.583333 1.000000
-0.086577 -0.307536 0.149957 -0.462416 -0.380230 0.800958 0.583333 0.944444
0.000000 -0.418647 0.100000 0.000000 -1.000000 0.000000 0.250000 0.010000
0.000000 -0.418647 0.100000 0.000000 -0.549883 0.835200 0.500000 1.000000
0.000000 -0.307536 0.173155 0.000000 -0.380230 0.924863 0.500000 0.944444
0.074439 0.581353 -0.042977 -0.866024 0.000000 0.499985 0.571347 0.353145
0.074439 0.509894 -0.042977 -0.866024 0.000000 0.499985 0.571347 0.353145
0.050000 -0.418647 0.086603 0.000000 -1.000000 0.000000 0.130000 0.042154
0.050000 -0.418647 0.086603 0.417585 -0.549883 0.723319 0.416667 1.000000
0.086577 -0.307536 0.149957 0.462416 -0.380230 0.800958 0.416667 0.944444
-0.085954 0.581353 -0.000000 1.000000 0.000000 0.000000 0.956290 0.250000
-0.085954 0.509894 -0.000000 1.000000 0.000000 0.000000 0.956290 0.250000
0.086603 -0.418647 0.050000 0.000000 -1.000000 0.000000 0.042154 0.130000
0.086603 -0.418647 0.050000 0.723319 -0.549883 0.417585 0.333333 1.000000
0.149957 -0.307536 0.086577 0.800958 -0.380230 0.462416 0.333333 0.944444
0.000000 0.581353 0.085954 0.000000 0.000000 -1.000000 0.750000 0.043710
0.000000 0.509894 0.085954 0.000000 0.000000 -1.000000 0.750000 0.043710
0.100000 -0.418647 0.000000 0.000000 -1.000000 0.000000 0.010000 0.250000
0.100000 -0.418647 0.000000 0.835200 -0.549883 0.000000 0.250000 1.000000
0.173155 -0.307536 0.000000 0.924863 -0.380230 0.000000 0.250000 0.944444
0.086603 -0.418647 -0.050000 0.000000 -1.000000 0.000000 0.042154 0.370000
0.086603 -0.418647 -0.050000 0.723319 -0.549883 -0.417585 0.166667 1.000000
0.149957 -0.307536 -0.086577 0.800958 -0.380230 -0.462416 0.166667 0.944444
0.050000 -0.418647 -0.086602 0.000000 -1.000000 0.000000 0.130000 0.457846
0.050000 -0.418647 -0.086602 0.417585 -0.549883 -0.723319 0.083333 1.000000
0.086577 -0.307536 -0.149956 0.462416 -0.380230 -0.800958 0.083333 0.944444
0.000000 -0.418647 -0.100000 0.000000 -0.549883 -0.835200 0.000000 1.000000
0.000000 -0.307536 -0.173155 0.000000 -0.380230 -0.924863 0.000000 0.944444
0.050000 0.581353 -0.086603 0.494278 -0.150548 -0.856136 0.083333 0.500000
0.041539 0.470242 -0.071947 0.497238 0.104831 -0.861232 0.083333 0.555556
-0.000000 0.470242 -0.083077 0.000000 0.104831 -0.994476 0.000000 0.555556
0.000000 0.581353 -0.100000 0.000000 -0.150548 -0.988586 0.000000 0.500000
0.061971 0.359131 -0.107337 0.453291 0.421918 -0.785150 0.083333 0.611111
0.000000 0.359131 -0.123942 0.000000 0.421918 -0.906613 0.000000 0.611111
0.092888 0.248020 -0.160886 0.436903 0.486251 -0.756737 0.083333 0.666667
0.000000 0.248020 -0.185776 0.000000 0.486251 -0.873806 0.000000 0.666667
0.092888 0.248020 -0.160886 0.395764 -0.611072 -0.685507 0.083333 0.666667
0.050000 0.136909 -0.086603 0.395764 -0.611072 -0.685507 0.083333 0.722222
0.000000 0.136909 -0.100000 0.000000 -0.611072 -0.791559 0.000000 0.722222
0.000000 0.248020 -0.185776 0.000000 -0.611072 -0.791559 0.000000 0.666667
0.050000 0.136909 -0.086603 0.445509 0.453902 -0.771661 0.083333 0.722222
0.078300 0.025797 -0.135620 0.460768 0.388165 -0.798090 0.083333 0.777778
0.000000 0.025797 -0.156600 0.000000 0.388165 -0.921567 0.000000 0.777778
0.000000 0.136909 -0.100000 0.000000 0.453902 -0.891049 0.000000 0.722222
0.097633 -0.085314 -0.169105 0.492294 0.174535 -0.852718 0.083333 0.833333
0.000000 -0.085314 -0.195265 0.000000 0.174535 -0.984619 0.000000 0.833333
0.099011 -0.196425 -0.171492 0.497696 -0.095614 -0.862026 0.083333 0.888889
0.000000 -0.196425 -0.198022 0.000000 -0.095614 -0.995392 0.000000 0.888889
0.086603 0.581353 -0.050000 0.856136 -0.150548 -0.494278 0.166667 0.500000
0.071947 0.470242 -0.041539 0.861232 0.104831 -0.497238 0.166667 0.555556
0.107337 0.359131 -0.061971 0.785150 0.421918 -0.453291 0.166667 0.611111
0.160886 0.248020 -0.092888 0.756737 0.486251 -0.436903 0.166667 0.666667
0.160886 0.248020 -0.092888 0.685507 -0.611072 -0.395764 0.166667 0.666667
0.086603 0.136909 -0.050000 0.685507 -0.611072 -0.395764 0.166667 0.722222
0.086603 0.136909 -0.050000 0.771661 0.453902 -0.445509 0.166667 0.722222
0.135620 0.025797 -0.078300 0.798090 0.388165 -0.460768 0.166667 0.777778
0.169105 -0.085314 -0.097633 0.852718 0.174535 -0.492294 0.166667 0.833333
0.171492 -0.196425 -0.099011 0.862056 -0.095614 -0.497696 0.166667 0.888889
0.100000 0.581353 -0.000000 0.988586 -0.150548 0.000000 0.250000 0.500000
0.083077 0.470242 -0.000000 0.994476 0.104831 0.000000 0.250000 0.555556
0.123942 0.359131 -0.000000 0.906613 0.421918 0.000000 0.250000 0.611111
0.185776 0.248020 -0.000000 0.873806 0.486251 0.000000 0.250000 0.666667
0.185776 0.248020 -0.000000 0.791559 -0.611072 0.000000 0.250000 0.666667
0.100000 0.136909 -0.000000 0.791559 -0.611072 0.000000 0.250000 0.722222
0.100000 0.136909 -0.000000 0.891049 0.453902 0.000000 0.250000 0.722222
0.156600 0.025797 0.000000 0.921567 0.388165 0.000000 0.250000 0.777778
0.195265 -0.085314 0.000000 0.984619 0.174535 0.000000 0.250000 0.833333
0.198022 -0.196425 0.000000 0.995392 -0.095614 0.000000 0.250000 0.888889
0.086603 0.581353 0.050000 0.856136 -0.150548 0.494278 0.333333 0.500000
0.071947 0.470242 0.041539 0.861232 0.104831 0.497238 0.333333 0.555556
0.107337 0.359131 0.061971 0.785150 0.421918 0.453291 0.333333 0.611111
0.160886 0.248020 0.092888 0.756737 0.486251 0.436903 0.333333 0.666667
0.160886 0.248020 0.092888 0.685507 -0.611072 0.395764 0.333333 0.666667
0.086603 0.136909 0.050000 0.685507 -0.611072 0.395764 0.333333 0.722222
0.086603 0.136909 0.050000 0.771661 0.453902 0.445509 0.333333 0.722222
0.135620 0.025797 0.078300 0.798090 0.388165 0.460768 0.333333 0.777778
0.169105 -0.085314 0.097633 0.852718 0.174535 0.492294 0.333333 0.833333
0.171492 -0.196425 0.099011 0.862026 -0.095614 0.497696 0.333333 0.888889
0.050000 0.581353 0.086603 0.494278 -0.150548 0.856136 0.416667 0.500000
0.041539 0.470242 0.071947 0.497238 0.104831 0.861232 0.416667 0.555556
0.061971 0.359131 0.107337 0.453291 0.421918 0.785150 0.416667 0.611111
0.092888 0.248020 0.160886 0.436903 0.486251 0.756737 0.416667 0.666667
0.092888 0.248020 0.160886 0.395764 -0.611072 0.685507 0.416667 0.666667
0.050000 0.136909 0.086603 0.395764 -0.611072 0.685507 0.416667 0.722222
0.050000 0.136909 0.086603 0.445509 0.453902 0.771661 0.416667 0.722222
0.078300 0.025797 0.135620 0.460768 0.388165 0.798090 0.416667 0.777778
0.097633 -0.085314 0.169105 0.492294 0.174535 0.852718 0.416667 0.833333
0.099011 -0.196425 0.171492 0.497696 -0.095614 0.862026 0.416667 0.888889
0.000000 0.581353 0.100000 0.000000 -0.150548 0.988586 0.500000 0.500000
0.000000 0.470242 0.083077 0.000000 0.104831 0.994476 0.500000 0.555556
0.000000 0.359131 0.123942 0.000000 0.421918 0.906613 0.500000 0.611111
0.000000 0.248020 0.185776 0.000000 0.486251 0.873806 0.500000 0.666667
0.000000 0.248020 0.185776 0.000000 -0.611072 0.791559 0.500000 0.666667
0.000000 0.136909 0.100000 0.000000 -0.611072 0.791559 0.500000 0.722222
0.000000 0.136909 0.100000 0.000000 0.453902 0.891049 0.500000 0.722222
0.000000 0.025797 0.156600 0.000000 0.388165 0.921567 0.500000 0.777778
0.000000 -0.085314 0.195265 0.000000 0.174535 0.984619 0.500000 0.833333
0.000000 -0.196425 0.198022 0.000000 -0.095614 0.995392 0.500000 0.888889
-0.050000 0.581353 0.086603 -0.494278 -0.150548 0.856136 0.583333 0.500000
-0.041539 0.470242 0.071947 -0.497238 0.104831 0.861232 0.583333 0.555556
-0.061971 0.359131 0.107337 -0.453291 0.421918 0.785150 0.583333 0.611111
-0.092888 0.248020 0.160886 -0.436903 0.486251 0.756737 0.583333 0.666667
-0.092888 0.248020 0.160886 -0.395764 -0.611072 0.685507 0.583333 0.666667
-0.050000 0.136909 0.086603 -0.395764 -0.611072 0.685507 0.583333 0.722222
-0.050000 0.136909 0.086603 -0.445509 0.453902 0.771661 0.583333 0.722222
-0.078300 0.025797 0.135620 -0.460768 0.388165 0.798090 0.583333 0.777778
-0.097633 -0.085314 0.169105 -0.492294 0.174535 0.852718 0.583333 0.833333
-0.099011 -0.196425 0.171492 -0.497696 -0.095614 0.862026 0.583333 0.888889
-0.086603 0.581353 0.050000 -0.856136 -0.150548 0.494278 0.666667 0.500000
-0.071947 0.470242 0.041539 -0.861232 0.104831 0.497238 0.666667 0.555556
-0.107337 0.359131 0.061971 -0.785150 0.421918 0.453291 0.666667 0.611111
-0.160886 0.248020 0.092888 -0.756737 0.486251 0.436872 0.666667 0.666667
-0.160886 0.248020 0.092888 -0.685507 -0.611072 0.395764 0.666667 0.666667
-0.086603 0.136909 0.050000 -0.685507 -0.611072 0.395764 0.666667 0.722222
-0.086603 0.136909 0.050000 -0.771661 0.453902 0.445509 0.666667 0.722222
-0.135620 0.025797 0.078300 -0.798090 0.388165 0.460768 0.666667 0.777778
-0.169105 -0.085314 0.097633 -0.852718 0.174535 0.492294 0.666667 0.833333
-0.171492 -0.196425 0.099011 -0.862026 -0.095614 0.497696 0.666667 0.888889
-0.100000 0.581353 -0.000000 -0.988586 -0.150548 0.000000 0.750000 0.500000
-0.083077 0.470242 -0.000000 -0.994476 0.104831 0.000000 0.750000 0.555556
-0.123942 0.359131 -0.000000 -0.906613 0.421918 0.000000 0.750000 0.611111
-0.185776 0.248020 -0.000000 -0.873806 0.486251 0.000000 0.750000 0.666667
-0.185776 0.248020 -0.000000 -0.791559 -0.611072 0.000000 0.750000 0.666667
-0.100000 0.136909 0.000000 -0.791559 -0.611072 0.000000 0.750000 0.722222
-0.100000 0.136909 0.000000 -0.891049 0.453902 0.000000 0.750000 0.722222
-0.156600 0.025797 0.000000 -0.921567 0.388165 0.000000 0.750000 0.777778
-0.195265 -0.085314 0.000000 -0.984619 0.174535 0.000000 0.750000 0.833333
-0.198022 -0.196425 0.000000 -0.995392 -0.095614 0.000000 0.750000 0.888889
-0.086603 0.581353 -0.050000 -0.856136 -0.150548 -0.494278 0.833333 0.500000
-0.071947 0.470242 -0.041539 -0.861232 0.104831 -0.497238 0.833333 0.555556
-0.107337 0.359131 -0.061971 -0.785150 0.421918 -0.453291 0.833333 0.611111
-0.160886 0.248020 -0.092888 -0.756737 0.486251 -0.436903 0.833333 0.666667
-0.160886 0.248020 -0.092888 -0.685507 -0.611072 -0.395764 0.833333 0.666667
-0.086603 0.136909 -0.050000 -0.685507 -0.611072 -0.395764 0.833333 0.722222
-0.086603 0.136909 -0.050000 -0.771661 0.453902 -0.445509 0.833333 0.722222
-0.135620 0.025797 -0.078300 -0.798090 0.388165 -0.460768 0.833333 0.777778
-0.169105 -0.085314 -0.097633 -0.852718 0.174535 -0.492294 0.833333 0.833333
-0.171492 -0.196425 -0.099011 -0.862026 -0.095614 -0.497696 0.833333 0.888889
-0.050000 0.581353 -0.086603 -0.494278 -0.150548 -0.856136 0.916667 0.500000
-0.041539 0.470242 -0.071947 -0.497238 0.104831 -0.861232 0.916667 0.555556
-0.061971 0.359131 -0.107337 -0.453291 0.421918 -0.785150 0.916667 0.611111
-0.092888 0.248020 -0.160887 -0.436903 0.486251 -0.756737 0.916667 0.666667
-0.092888 0.248020 -0.160887 -0.395764 -0.611072 -0.685507 0.916667 0.666667
-0.050000 0.136909 -0.086603 -0.395764 -0.611072 -0.685507 0.916667 0.722222
-0.050000 0.136909 -0.086603 -0.445509 0.453902 -0.771661 0.916667 0.722222
-0.078300 0.025797 -0.135620 -0.460768 0.388165 -0.798090 0.916667 0.777778
-0.097633 -0.085314 -0.169105 -0.492294 0.174535 -0.852718 0.916667 0.833333
-0.099011 -0.196425 -0.171492 -0.497696 -0.095614 -0.862026 0.916667 0.888889
0.000000 0.581353 -0.100000 0.000000 -0.150548 -0.988586 1.000000 0.500000
-0.000000 0.470242 -0.083077 0.000000 0.104831 -0.994476 1.000000 0.555556
0.000000 0.359131 -0.123942 0.000000 0.421918 -0.906613 1.000000 0.611111
0.000000 0.248020 -0.185776 0.000000 0.486251 -0.873806 1.000000 0.666667
0.000000 0.248020 -0.185776 0.000000 -0.611072 -0.791559 1.000000 0.666667
0.000000 0.136909 -0.100000 0.000000 -0.611072 -0.791559 1.000000 0.722222
0.000000 0.136909 -0.100000 0.000000 0.453902 -0.891049 1.000000 0.722222
0.000000 0.025797 -0.156600 0.000000 0.388165 -0.921567 1.000000 0.777778
0.000000 -0.085314 -0.195265 0.000000 0.174535 -0.984619 1.000000 0.833333
0.000000 -0.196425 -0.198022 0.000000 -0.095614 -0.995392 1.000000 0.888889
-0.042977 0.581353 -0.074439 0.000000 0.999969 0.000000 0.853145 0.428652
-0.000000 0.581353 -0.085954 0.000000 1.000000 0.000000 0.750000 0.456290
0.000000 0.581353 -0.100000 0.000000 0.999969 0.000000 0.750000 0.490000
-0.050000 0.581353 -0.086603 0.000000 1.000000 0.000000 0.870000 0.457846
-0.074439 0.581353 -0.042977 0.000000 0.999969 0.000000 0.928653 0.353145
-0.086603 0.581353 -0.050000 0.000000 0.999969 0.000000 0.957846 0.370000
-0.085954 0.581353 -0.000000 0.000000 1.000000 0.000000 0.956290 0.250000
-0.100000 0.581353 -0.000000 0.000000 1.000000 0.000000 0.990000 0.250000
-0.074439 0.581353 0.042977 0.000000 1.000000 0.000000 0.928653 0.146855
-0.086603 0.581353 0.050000 0.000000 1.000000 0.000000 0.957846 0.130000
-0.042977 0.581353 0.074439 0.000000 1.000000 0.000000 0.853145 0.071347
-0.050000 0.581353 0.086603 0.000000 0.999969 0.000000 0.870000 0.042154
0.000000 0.581353 0.085954 0.000000 1.000000 0.000000 0.750000 0.043710
0.000000 0.581353 0.100000 0.000000 1.000000 0.000000 0.750000 0.010000
0.042977 0.581353 0.074439 0.000000 0.999969 0.000000 0.646855 0.071347
0.050000 0.581353 0.086603 0.000000 0.999969 0.000000 0.630000 0.042154
0.074439 0.581353 0.042977 0.000000 1.000000 0.000000 0.571347 0.146855
0.086603 0.581353 0.050000 0.000000 1.000000 0.000000 0.542154 0.130000
0.085954 0.581353 -0.000000 0.000000 1.000000 0.000000 0.543710 0.250000
0.100000 0.581353 -0.000000 0.000000 1.000000 0.000000 0.510000 0.250000
0.074439 0.581353 -0.042977 0.000000 1.000000 0.000000 0.571347 0.353145
0.086603 0.581353 -0.050000 0.000000 1.000000 0.000000 0.542154 0.370000
0.042977 0.581353 -0.074439 0.000000 1.000000 0.000000 0.646855 0.428652
0.050000 0.581353 -0.086603 0.000000 1.000000 0.000000 0.630000 0.457846
0.000000 0.509894 -0.000000 0.000000 1.000000 0.000000 0.750000 0.250000
-0.000000 0.509894 -0.085954 0.000000 0.999969 0.000000 0.750000 0.456290
-0.042977 0.509894 -0.074439 0.000000 1.000000 0.000000 0.853145 0.428652
-0.074439 0.509894 -0.042977 0.000000 0.999969 0.000000 0.928653 0.353145
-0.085954 0.509894 -0.000000 0.000000 1.000000 0.000000 0.956290 0.250000
-0.074439 0.509894 0.042977 0.000000 1.000000 0.000000 0.928653 0.146855
-0.042977 0.509894 0.074439 0.000000 1.000000 0.000000 0.853145 0.071347
0.000000 0.509894 0.085954 0.000000 1.000000 0.000000 0.750000 0.043710
0.042977 0.509894 0.074439 0.000000 1.000000 0.000000 0.646855 0.071347
0.074439 0.509894 0.042977 0.000000 1.000000 0.000000 0.571347 0.146855
0.085954 0.509894 -0.000000 0.000000 1.000000 0.000000 0.543710 0.250000
0.074439 0.509894 -0.042977 0.000000 1.000000 0.000000 0.571347 0.353145
0.042977 0.509894 -0.074439 0.000000 1.000000 0.000000 0.646855 0.428652
4 0 1 2 3
3 4 5 6
4 7 8 9 10
4 11 12 13 14
3 4 15 5
4 10 9 16 17
4 18 19 20 21
3 4 22 15
4 17 16 23 24
4 25 26 27 28
3 4 29 22
4 24 23 30 31
4 32 0 3 33
3 4 34 29
4 31 30 35 36
4 19 11 14 20
3 4 37 34
4 36 35 38 39
4 40 18 21 41
3 4 42 37
4 39 38 43 44
4 45 25 28 46
3 4 47 42
4 44 43 48 49
4 50 32 33 51
3 4 52 47
4 49 48 53 54
4 1 40 41 2
3 4 55 52
4 54 53 56 57
4 12 45 46 13
3 4 58 55
4 57 56 59 60
4 26 50 51 27
3 4 6 58
4 60 59 61 62
4 63 64 65 66
4 64 67 68 65
4 67 69 70 68
4 71 72 73 74
4 75 76 77 78
4 76 79 80 77
4 79 81 82 80
4 81 60 62 82
4 83 84 64 63
4 84 85 67 64
4 85 86 69 67
4 87 88 72 71
4 89 90 76 75
4 90 91 79 76
4 91 92 81 79
4 92 57 60 81
4 93 94 84 83
4 94 95 85 84
4 95 96 86 85
4 97 98 88 87
4 99 100 90 89
4 100 101 91 90
4 101 102 92 91
4 102 54 57 92
4 103 104 94 93
4 104 105 95 94
4 105 106 96 95
4 107 108 98 97
4 109 110 100 99
4 110 111 101 100
4 111 112 102 101
4 112 49 54 102
4 113 114 104 103
4 114 115 105 104
4 115 116 106 105
4 117 118 108 107
4 119 120 110 109
4 120 121 111 110
4 121 122 112 111
4 122 44 49 112
4 123 124 114 113
4 124 125 115 114
4 125 126 116 115
4 127 128 118 117
4 129 130 120 119
4 130 131 121 120
4 131 132 122 121
4 132 39 44 122
4 133 134 124 123
4 134 135 125 124
4 135 136 126 125
4 137 138 128 127
4 139 140 130 129
4 140 141 131 130
4 141 142 132 131
4 142 36 39 132
4 143 144 134 133
4 144 145 135 134
4 145 146 136 135
4 147 148 138 137
4 149 150 140 139
4 150 151 141 140
4 151 152 142 141
4 152 31 36 142
4 153 154 144 143
4 154 155 145 144
4 155 156 146 145
4 157 158 148 147
4 159 160 150 149
4 160 161 151 150
4 161 162 152 151
4 162 24 31 152
4 163 164 154 153
4 164 165 155 154
4 165 166 156 155
4 167 168 158 157
4 169 170 160 159
4 170 171 161 160
4 171 172 162 161
4 172 17 24 162
4 173 174 164 163
4 174 175 165 164
4 175 176 166 165
4 177 178 168 167
4 179 180 170 169
4 180 181 171 170
4 181 182 172 171
4 182 10 17 172
4 183 184 174 173
4 184 185 175 174
4 185 186 176 175
4 187 188 178 177
4 189 190 180 179
4 190 191 181 180
4 191 192 182 181
4 192 7 10 182
4 193 194 195 196
4 197 193 196 198
4 199 197 198 200
4 201 199 200 202
4 203 201 202 204
4 205 203 204 206
4 207 205 206 208
4 209 207 208 210
4 211 209 210 212
4 213 211 212 214
4 215 213 214 216
4 194 215 216 195
3 217 218 219
3 217 219 220
3 217 220 221
3 217 221 222
3 217 222 223
3 217 223 224
3 217 224 225
3 217 225 226
3 217 226 227
3 217 227 228
3 217 228 229
3 217 229 218
